<svg xmlns="http://www.w3.org/2000/svg" viewBox="0 0 512 512">
  <defs>
    <linearGradient id="grad" x1="0%" y1="0%" x2="100%" y2="100%">
      <stop offset="0%" style="stop-color:#6366f1;stop-opacity:1" />
      <stop offset="100%" style="stop-color:#8b5cf6;stop-opacity:1" />
    </linearGradient>
  </defs>
  
  <!-- Shield Background -->
  <path d="M256 0c-44 0-86 24-128 48-42 24-85 48-128 48v160c0 177 107 330 256 384 149-54 256-207 256-384V96c-43 0-86-24-128-48-42-24-84-48-128-48z" fill="url(#grad)"/>
  
  <!-- Car Icon Drop Shadow -->
  <path d="M128 256h256v64H128z" fill="#000" opacity="0.2" transform="translate(0, 10)"/>

  <!-- Car Icon -->
  <path d="M112 256h288c17.7 0 32 14.3 32 32v64H80v-64c0-17.7 14.3-32 32-32zm32-112h224l32 96H112l32-96z" fill="#e0e7ff"/>
  <circle cx="144" cy="384" r="32" fill="#1e1b4b"/>
  <circle cx="368" cy="384" r="32" fill="#1e1b4b"/>
  <circle cx="144" cy="384" r="12" fill="#6366f1"/>
  <circle cx="368" cy="384" r="12" fill="#6366f1"/>
</svg>
